<svg viewBox="0 0 513.64 513.64" xmlns="http://www.w3.org/2000/svg" xmlns:xlink="http://www.w3.org/1999/xlink"><style>:root&gt;svg{display:none}:root&gt;svg:target{display:block}</style><svg viewBox="0 0 494.148 494.148" id="arrow" xmlns="http://www.w3.org/2000/svg"><path d="M405.284 201.188L130.804 13.28C118.128 4.596 105.356 0 94.74 0 74.216 0 61.52 16.472 61.52 44.044v406.124c0 27.54 12.68 43.98 33.156 43.98 10.632 0 23.2-4.6 35.904-13.308l274.608-187.904c17.66-12.104 27.44-28.392 27.44-45.884.004-17.48-9.664-33.764-27.344-45.864z"/></svg><svg viewBox="0 0 56 56" id="burger" xmlns="http://www.w3.org/2000/svg"><path d="M28 0C12.561 0 0 12.561 0 28s12.561 28 28 28 28-12.561 28-28S43.439 0 28 0zm12 41H16a2 2 0 010-4h24a2 2 0 010 4zm0-11H16a2 2 0 010-4h24a2 2 0 010 4zm0-11H16a2 2 0 010-4h24a2 2 0 010 4z"/></svg><svg viewBox="0 0 512 512" id="cross" xmlns="http://www.w3.org/2000/svg"><path d="M256 0C114.844 0 0 114.844 0 256s114.844 256 256 256 256-114.844 256-256S397.156 0 256 0zm103.54 329.374c4.167 4.165 4.167 10.919 0 15.085l-15.08 15.081c-4.167 4.165-10.919 4.165-15.086 0L256 286.167l-73.374 73.374c-4.167 4.165-10.919 4.165-15.086 0l-15.081-15.082c-4.167-4.165-4.167-10.919 0-15.085l73.374-73.375-73.374-73.374c-4.167-4.165-4.167-10.919 0-15.085l15.081-15.082c4.167-4.165 10.919-4.165 15.086 0L256 225.832l73.374-73.374c4.167-4.165 10.919-4.165 15.086 0l15.081 15.082c4.167 4.165 4.167 10.919 0 15.085l-73.374 73.374 73.373 73.375z"/></svg><svg viewBox="0 0 512 512" id="devide" xmlns="http://www.w3.org/2000/svg"><path d="M135 300.999c-24.901 0-45 20.099-45 45s20.099 45 45 45 45-20.099 45-45-20.099-45-45-45z"/><path d="M135 210.999a135.21 135.21 0 00-44.399 7.5v.601C77.401 223.599 65.4 230.2 54.3 238c0 0-42.295 32.591-50.099 75.599-.3.3-.3.601-.3 1.201C2.16 320.013 0 332.934 0 345.999c0 74.399 60.601 135 135 135 12.328 0 25.912-2.135 31.199-3.9.3 0 .901 0 1.201-.3 30.013-5.446 75.8-34.002 94.199-85.8h.601c5.099-14.099 7.8-29.099 7.8-45 0-74.052-60.472-135-135-135zm0 210c-41.4 0-75-33.6-75-75s33.6-75 75-75 75 33.6 75 75-33.6 75-75 75zm211.94-390H147.599c-23.099 0-42.9 17.999-44.7 41.4l-9 108.6-.601 5.4c13.2-3.6 27.301-5.4 41.7-5.4 6.303 0 12.902.3 18.902 1.199v-1.199l6.301-76.199c.599-7.8 7.2-13.801 15-13.801h172.04l13.799-40.201c3.728-9.31-3.854-19.799-14.1-19.799z"/><path d="M344.54 120.999H270v60h84.44zm-155.54 0l-5.1 60H240v-60zM507.44 363.7c-.506-3.561-6.731-17.479-14.7-27.902v-.298c-4.2-4.801-8.699-9.3-13.799-13.5v-.3c-15.601-12.9-35.7-20.7-57.001-20.7-49.501 0-90 40.499-90 90s40.499 90 90 90 90-40.499 90-90c0-10.833-2.658-23.009-4.5-27.3zm-85.5 57.299c-16.5 0-30-13.5-30-30s13.5-30 30-30 30 13.5 30 30-13.5 30-30 30z"/><path d="M496.94 210.999h-45v-60h15c19.774 0 19.854-30 0-30h-30c-8.291 0-14.8 6.709-14.8 15v75H230.099c10.886 7.916 22.694 18.131 30.901 28.801h.3c24.301 28.798 38.9 65.998 38.9 106.199 0 6.422-.083 12.713-.165 18.931 12.561-53.719 64.582-93.931 121.905-93.931 24.901 0 48.3 7.8 67.5 21l21.599-60.901c3.762-10.017-4.062-20.099-14.099-20.099z"/></svg><svg viewBox="0 0 512 512" id="ico" xmlns="http://www.w3.org/2000/svg"><path d="M256 0C114.844 0 0 114.844 0 256s114.844 256 256 256 256-114.844 256-256S397.156 0 256 0zm103.54 329.374c4.167 4.165 4.167 10.919 0 15.085l-15.08 15.081c-4.167 4.165-10.919 4.165-15.086 0L256 286.167l-73.374 73.374c-4.167 4.165-10.919 4.165-15.086 0l-15.081-15.082c-4.167-4.165-4.167-10.919 0-15.085l73.374-73.375-73.374-73.374c-4.167-4.165-4.167-10.919 0-15.085l15.081-15.082c4.167-4.165 10.919-4.165 15.086 0L256 225.832l73.374-73.374c4.167-4.165 10.919-4.165 15.086 0l15.081 15.082c4.167 4.165 4.167 10.919 0 15.085l-73.374 73.374 73.373 73.375z"/></svg><svg viewBox="0 0 512 512" id="mail" xmlns="http://www.w3.org/2000/svg"><path d="M467 61H45c-6.927 0-13.412 1.703-19.279 4.51L255 294.789l51.389-49.387.005-.007.005-.004L486.286 65.514C480.418 62.705 473.929 61 467 61zm40.496 25.728L338.213 256.002 507.49 425.279c2.807-5.867 4.51-12.352 4.51-19.279V106c0-6.923-1.699-13.407-4.504-19.272zM4.51 86.721C1.703 92.588 0 99.073 0 106v300c0 6.923 1.701 13.409 4.506 19.274L173.789 256 4.51 86.721z"/><path d="M317.002 277.213l-51.396 49.393c-2.93 2.93-6.768 4.395-10.605 4.395s-7.676-1.465-10.605-4.395L195 277.211 25.714 446.486C31.582 449.295 38.071 451 45 451h422c6.927 0 13.412-1.703 19.279-4.51L317.002 277.213z"/></svg><svg viewBox="0 0 513.64 513.64" id="phone" xmlns="http://www.w3.org/2000/svg"><path d="M499.66 376.96l-71.68-71.68c-25.6-25.6-69.12-15.359-79.36 17.92-7.68 23.041-33.28 35.841-56.32 30.72-51.2-12.8-120.32-79.36-133.12-133.12-7.68-23.041 7.68-48.641 30.72-56.32 33.28-10.24 43.52-53.76 17.92-79.36l-71.68-71.68c-20.48-17.92-51.2-17.92-69.12 0L18.38 62.08c-48.64 51.2 5.12 186.88 125.44 307.2s256 176.641 307.2 125.44l48.64-48.64c17.921-20.48 17.921-51.2 0-69.12z"/></svg><svg viewBox="-66 0 512 512.001" id="place" xmlns="http://www.w3.org/2000/svg"><path d="M190.39 103.977c-47.648 0-86.413 38.765-86.413 86.41 0 47.648 38.765 86.414 86.414 86.414s86.41-38.766 86.41-86.414c0-47.645-38.766-86.41-86.41-86.41zm0 0"/><path d="M191.168.004l-.8-.004C85.397 0 0 85.406 0 190.387c0 57.554 29.418 102.445 62.195 147.148L190.113 512S311.02 347.852 318.582 337.54c32.777-44.704 62.195-89.595 62.195-147.15C380.777 85.669 295.797.419 191.168.005zm-.777 306.789c-64.188 0-116.407-52.219-116.407-116.406 0-64.184 52.22-116.403 116.407-116.403s116.406 52.22 116.406 116.403c0 64.187-52.223 116.406-116.406 116.406zm0 0"/></svg><svg viewBox="0 0 455.731 455.731" id="viber" xmlns="http://www.w3.org/2000/svg"><path fill="#7D3DAF" d="M0 0h455.731v455.731H0z"/><path fill="#FFF" d="M371.996 146.901l-.09-.36c-7.28-29.43-40.1-61.01-70.24-67.58l-.34-.07c-48.75-9.3-98.18-9.3-146.92 0l-.35.07c-30.13 6.57-62.95 38.15-70.24 67.58l-.08.36c-9 41.1-9 82.78 0 123.88l.08.36c6.979 28.174 37.355 58.303 66.37 66.589v32.852c0 11.89 14.49 17.73 22.73 9.15l33.285-34.599c7.219.404 14.442.629 21.665.629 24.54 0 49.09-2.32 73.46-6.97l.34-.07c30.14-6.57 62.96-38.15 70.24-67.58l.09-.36c9-41.101 9-82.781 0-123.881zm-26.34 117.92c-4.86 19.2-29.78 43.07-49.58 47.48-25.921 4.929-52.047 7.036-78.147 6.313a1.851 1.851 0 00-1.38.559l-24.303 24.948-25.85 26.53c-1.89 1.97-5.21.63-5.21-2.09v-54.422c0-.899-.642-1.663-1.525-1.836l-.015-.003c-19.8-4.41-44.71-28.28-49.58-47.48-8.1-37.15-8.1-74.81 0-111.96 4.87-19.2 29.78-43.07 49.58-47.48 45.27-8.61 91.17-8.61 136.43 0 19.81 4.41 44.72 28.28 49.58 47.48 8.109 37.151 8.109 74.811 0 111.961z"/><path fill="#FFF" d="M270.937 289.942c-3.044-.924-5.945-1.545-8.639-2.663-27.916-11.582-53.608-26.524-73.959-49.429-11.573-13.025-20.631-27.73-28.288-43.292-3.631-7.38-6.691-15.049-9.81-22.668-2.844-6.948 1.345-14.126 5.756-19.361 4.139-4.913 9.465-8.673 15.233-11.444 4.502-2.163 8.943-.916 12.231 2.9 7.108 8.25 13.637 16.922 18.924 26.485 3.251 5.882 2.359 13.072-3.533 17.075-1.432.973-2.737 2.115-4.071 3.214-1.17.963-2.271 1.936-3.073 3.24-1.466 2.386-1.536 5.2-.592 7.794 7.266 19.968 19.513 35.495 39.611 43.858 3.216 1.338 6.446 2.896 10.151 2.464 6.205-.725 8.214-7.531 12.562-11.087 4.25-3.475 9.681-3.521 14.259-.624 4.579 2.898 9.018 6.009 13.43 9.153 4.331 3.086 8.643 6.105 12.638 9.623 3.841 3.383 5.164 7.821 3.001 12.412-3.96 8.408-9.722 15.403-18.034 19.868-2.347 1.259-5.15 1.667-7.797 2.482-3.044-.925 2.647-.815 0 0zm-42.995-158.471c36.515 1.023 66.506 25.256 72.933 61.356 1.095 6.151 1.485 12.44 1.972 18.683.205 2.626-1.282 5.121-4.116 5.155-2.927.035-4.244-2.414-4.434-5.039-.376-5.196-.637-10.415-1.353-15.568-3.78-27.201-25.47-49.705-52.545-54.534-4.074-.727-8.244-.918-12.371-1.351-2.609-.274-6.026-.432-6.604-3.675-.485-2.719 1.81-4.884 4.399-5.023.704-.039 1.412-.007 2.119-.004 36.515 1.023-.707-.003 0 0z"/><path fill="#FFF" d="M283.434 203.407c-.06.456-.092 1.528-.359 2.538-.969 3.666-6.527 4.125-7.807.425-.379-1.098-.436-2.347-.438-3.529-.013-7.734-1.694-15.46-5.594-22.189-4.009-6.916-10.134-12.73-17.318-16.248-4.344-2.127-9.042-3.449-13.803-4.237-2.081-.344-4.184-.553-6.275-.844-2.534-.352-3.887-1.967-3.767-4.464.112-2.34 1.822-4.023 4.372-3.879 8.38.476 16.474 2.287 23.924 6.232 15.15 8.023 23.804 20.687 26.33 37.597.114.766.298 1.525.356 2.294.143 1.899.233 3.8.379 6.304-.06.456-.146-2.504 0 0z"/><path fill="#FFF" d="M260.722 202.523c-3.055.055-4.69-1.636-5.005-4.437-.219-1.953-.392-3.932-.858-5.832-.918-3.742-2.907-7.21-6.055-9.503-1.486-1.083-3.17-1.872-4.934-2.381-2.241-.647-4.568-.469-6.804-1.017-2.428-.595-3.771-2.561-3.389-4.839.347-2.073 2.364-3.691 4.629-3.527 14.157 1.022 24.275 8.341 25.719 25.007.102 1.176.222 2.419-.039 3.544-.447 1.926-1.873 2.891-3.264 2.985-3.055.055 1.391-.094 0 0z"/></svg><svg viewBox="0 0 455.731 455.731" id="whatsapp" xmlns="http://www.w3.org/2000/svg"><path fill="#1BD741" d="M0 0h455.731v455.731H0z"/><path fill="#FFF" d="M68.494 387.41l22.323-79.284c-14.355-24.387-21.913-52.134-21.913-80.638 0-87.765 71.402-159.167 159.167-159.167s159.166 71.402 159.166 159.167-71.401 159.167-159.166 159.167c-27.347 0-54.125-7-77.814-20.292L68.494 387.41zm85.943-50.004l4.872 2.975c20.654 12.609 44.432 19.274 68.762 19.274 72.877 0 132.166-59.29 132.166-132.167S300.948 95.321 228.071 95.321 95.904 154.611 95.904 227.488c0 25.393 7.217 50.052 20.869 71.311l3.281 5.109-12.855 45.658 47.238-12.16z"/><path fill="#FFF" d="M183.359 153.407l-10.328-.563a12.49 12.49 0 00-8.878 3.037c-5.007 4.348-13.013 12.754-15.472 23.708-3.667 16.333 2 36.333 16.667 56.333 14.667 20 42 52 90.333 65.667 15.575 4.404 27.827 1.435 37.28-4.612 7.487-4.789 12.648-12.476 14.508-21.166l1.649-7.702a5.35 5.35 0 00-2.993-5.98L271.22 246.04a5.352 5.352 0 00-6.477 1.591l-13.703 17.764a3.921 3.921 0 01-4.407 1.312c-9.384-3.298-40.818-16.463-58.066-49.687a3.96 3.96 0 01.499-4.419l13.096-15.15a5.35 5.35 0 00.872-5.602l-15.046-35.201a5.352 5.352 0 00-4.629-3.241z"/></svg></svg>