<svg xmlns="http://www.w3.org/2000/svg" viewBox="0 0 512 512"><path d="M135 300.999c-24.901 0-45 20.099-45 45s20.099 45 45 45 45-20.099 45-45-20.099-45-45-45z"/><path d="M135 210.999a135.21 135.21 0 00-44.399 7.5v.601C77.401 223.599 65.4 230.2 54.3 238c0 0-42.295 32.591-50.099 75.599-.3.3-.3.601-.3 1.201C2.16 320.013 0 332.934 0 345.999c0 74.399 60.601 135 135 135 12.328 0 25.912-2.135 31.199-3.9.3 0 .901 0 1.201-.3 30.013-5.446 75.8-34.002 94.199-85.8h.601c5.099-14.099 7.8-29.099 7.8-45 0-74.052-60.472-135-135-135zm0 210c-41.4 0-75-33.6-75-75s33.6-75 75-75 75 33.6 75 75-33.6 75-75 75zm211.94-390H147.599c-23.099 0-42.9 17.999-44.7 41.4l-9 108.6-.601 5.4c13.2-3.6 27.301-5.4 41.7-5.4 6.303 0 12.902.3 18.902 1.199v-1.199l6.301-76.199c.599-7.8 7.2-13.801 15-13.801h172.04l13.799-40.201c3.728-9.31-3.854-19.799-14.1-19.799z"/><path d="M344.54 120.999H270v60h84.44zm-155.54 0l-5.1 60H240v-60zM507.44 363.7c-.506-3.561-6.731-17.479-14.7-27.902v-.298c-4.2-4.801-8.699-9.3-13.799-13.5v-.3c-15.601-12.9-35.7-20.7-57.001-20.7-49.501 0-90 40.499-90 90s40.499 90 90 90 90-40.499 90-90c0-10.833-2.658-23.009-4.5-27.3zm-85.5 57.299c-16.5 0-30-13.5-30-30s13.5-30 30-30 30 13.5 30 30-13.5 30-30 30z"/><path d="M496.94 210.999h-45v-60h15c19.774 0 19.854-30 0-30h-30c-8.291 0-14.8 6.709-14.8 15v75H230.099c10.886 7.916 22.694 18.131 30.901 28.801h.3c24.301 28.798 38.9 65.998 38.9 106.199 0 6.422-.083 12.713-.165 18.931 12.561-53.719 64.582-93.931 121.905-93.931 24.901 0 48.3 7.8 67.5 21l21.599-60.901c3.762-10.017-4.062-20.099-14.099-20.099z"/></svg>