<svg xmlns="http://www.w3.org/2000/svg" width="512pt" height="512pt" viewBox="-66 0 512 512.001"><path d="M190.39 103.977c-47.648 0-86.413 38.765-86.413 86.41 0 47.648 38.765 86.414 86.414 86.414s86.41-38.766 86.41-86.414c0-47.645-38.766-86.41-86.41-86.41zm0 0"/><path d="M191.168.004l-.8-.004C85.397 0 0 85.406 0 190.387c0 57.554 29.418 102.445 62.195 147.148L190.113 512S311.02 347.852 318.582 337.54c32.777-44.704 62.195-89.595 62.195-147.15C380.777 85.669 295.797.419 191.168.005zm-.777 306.789c-64.188 0-116.407-52.219-116.407-116.406 0-64.184 52.22-116.403 116.407-116.403s116.406 52.22 116.406 116.403c0 64.187-52.223 116.406-116.406 116.406zm0 0"/></svg>